<?xml version="1.0" encoding="UTF-8" standalone="no"?><svg xmlns="http://www.w3.org/2000/svg" xmlns:xlink="http://www.w3.org/1999/xlink" contentScriptType="application/ecmascript" contentStyleType="text/css" height="233px" preserveAspectRatio="none" style="width:338px;height:233px;" version="1.1" viewBox="0 0 338 233" width="338px" zoomAndPan="magnify"><defs><filter height="300%" id="f10gws6slohouf" width="300%" x="-1" y="-1"><feGaussianBlur result="blurOut" stdDeviation="2.0"/><feColorMatrix in="blurOut" result="blurOut2" type="matrix" values="0 0 0 0 0 0 0 0 0 0 0 0 0 0 0 0 0 0 .4 0"/><feOffset dx="4.0" dy="4.0" in="blurOut2" result="blurOut3"/><feBlend in="SourceGraphic" in2="blurOut3" mode="normal"/></filter></defs><g><text fill="#000000" font-family="sans-serif" font-size="18" lengthAdjust="spacingAndGlyphs" textLength="179" x="83.5" y="16.708">Use Case Diagram 2</text><!--entity U--><ellipse cx="170" cy="55.25" fill="#FEFECE" filter="url(#f10gws6slohouf)" rx="8" ry="8" style="stroke: #A80036; stroke-width: 2.0;"/><path d="M170,63.25 L170,90.25 M157,71.25 L183,71.25 M170,90.25 L157,105.25 M170,90.25 L183,105.25 " fill="none" filter="url(#f10gws6slohouf)" style="stroke: #A80036; stroke-width: 2.0;"/><text fill="#000000" font-family="sans-serif" font-size="14" lengthAdjust="spacingAndGlyphs" textLength="32" x="154" y="125.2451">User</text><text fill="#000000" font-family="sans-serif" font-size="14" font-style="italic" lengthAdjust="spacingAndGlyphs" textLength="52" x="144" y="41.9482">«Child»</text><ellipse cx="35.163" cy="205.4768" fill="#FEFECE" filter="url(#f10gws6slohouf)" rx="29.163" ry="14.5236" style="stroke: #A80036; stroke-width: 1.5;"/><text fill="#000000" font-family="sans-serif" font-size="14" lengthAdjust="spacingAndGlyphs" textLength="37" x="16.663" y="210.1252">Login</text><ellipse cx="170.0454" cy="205.5622" fill="#FEFECE" filter="url(#f10gws6slohouf)" rx="71.0454" ry="16.6091" style="stroke: #A80036; stroke-width: 1.5;"/><text fill="#000000" font-family="sans-serif" font-size="14" lengthAdjust="spacingAndGlyphs" textLength="109" x="115.5454" y="210.2106">Planning/Saving</text><ellipse cx="302.1274" cy="205.4768" fill="#FEFECE" filter="url(#f10gws6slohouf)" rx="25.6274" ry="14.5236" style="stroke: #A80036; stroke-width: 1.5;"/><text fill="#000000" font-family="sans-serif" font-size="14" lengthAdjust="spacingAndGlyphs" textLength="32" x="286.1274" y="210.1252">View</text><!--link U to L--><path d="M143.971,103.9581 C116.882,128.9398 75.2445,167.3387 52.0672,188.7133 " fill="none" id="U-L" style="stroke: #A80036; stroke-width: 1.0;"/><polygon fill="#A80036" points="48.2365,192.2461,57.5644,189.0853,51.9121,188.8565,52.1409,183.2043,48.2365,192.2461" style="stroke: #A80036; stroke-width: 1.0;"/><!--link U to MC--><path d="M170,129.1588 C170,148.0456 170,168.6096 170,183.4673 " fill="none" id="U-MC" style="stroke: #A80036; stroke-width: 1.0;"/><polygon fill="#A80036" points="170,188.6693,174,179.6693,170,183.6693,166,179.6693,170,188.6693" style="stroke: #A80036; stroke-width: 1.0;"/><!--link U to V--><path d="M196.079,104.5501 C222.785,129.7385 263.458,168.1012 285.836,189.2075 " fill="none" id="U-V" style="stroke: #A80036; stroke-width: 1.0;"/><polygon fill="#A80036" points="289.53,192.6914,285.7263,183.6067,285.8923,189.2611,280.2378,189.4271,289.53,192.6914" style="stroke: #A80036; stroke-width: 1.0;"/><!--
@startuml
title Use Case Diagram 2


actor :User: as U<<Child>>


(Login) as L
(Planning/Saving) as MC
(View) as V


U - -> L
U - -> MC
U - -> V
@enduml

PlantUML version 1.2018.13beta10(Unknown compile time)
(GPL source distribution)
Java Runtime: Java(TM) SE Runtime Environment
JVM: Java HotSpot(TM) 64-Bit Server VM
Java Version: 1.7.0_25-b15
Operating System: Linux
Default Encoding: UTF-8
Language: en
Country: US
--></g></svg>