<?xml version="1.0" encoding="UTF-8" standalone="no"?><svg xmlns="http://www.w3.org/2000/svg" xmlns:xlink="http://www.w3.org/1999/xlink" contentScriptType="application/ecmascript" contentStyleType="text/css" height="518px" preserveAspectRatio="none" style="width:817px;height:518px;" version="1.1" viewBox="0 0 817 518" width="817px" zoomAndPan="magnify"><defs><filter height="300%" id="f18frzp5pzne3m" width="300%" x="-1" y="-1"><feGaussianBlur result="blurOut" stdDeviation="2.0"/><feColorMatrix in="blurOut" result="blurOut2" type="matrix" values="0 0 0 0 0 0 0 0 0 0 0 0 0 0 0 0 0 0 .4 0"/><feOffset dx="4.0" dy="4.0" in="blurOut2" result="blurOut3"/><feBlend in="SourceGraphic" in2="blurOut3" mode="normal"/></filter></defs><g><text fill="#000000" font-family="sans-serif" font-size="18" lengthAdjust="spacingAndGlyphs" textLength="179" x="323" y="16.708">Use Case Diagram 1</text><!--entity U--><ellipse cx="242.5" cy="153.25" fill="#FEFECE" filter="url(#f18frzp5pzne3m)" rx="8" ry="8" style="stroke: #A80036; stroke-width: 2.0;"/><path d="M242.5,161.25 L242.5,188.25 M229.5,169.25 L255.5,169.25 M242.5,188.25 L229.5,203.25 M242.5,188.25 L255.5,203.25 " fill="none" filter="url(#f18frzp5pzne3m)" style="stroke: #A80036; stroke-width: 2.0;"/><text fill="#000000" font-family="sans-serif" font-size="14" lengthAdjust="spacingAndGlyphs" textLength="32" x="226.5" y="223.2451">User</text><text fill="#000000" font-family="sans-serif" font-size="14" font-style="italic" lengthAdjust="spacingAndGlyphs" textLength="62" x="211.5" y="139.9482">«Parent»</text><ellipse cx="227.7471" cy="398.4026" fill="#FEFECE" filter="url(#f18frzp5pzne3m)" rx="70.2471" ry="16.4494" style="stroke: #A80036; stroke-width: 1.5;"/><text fill="#000000" font-family="sans-serif" font-size="14" lengthAdjust="spacingAndGlyphs" textLength="107" x="174.2471" y="403.051">Create Account</text><ellipse cx="242.663" cy="47.9768" fill="#FEFECE" filter="url(#f18frzp5pzne3m)" rx="29.163" ry="14.5236" style="stroke: #A80036; stroke-width: 1.5;"/><text fill="#000000" font-family="sans-serif" font-size="14" lengthAdjust="spacingAndGlyphs" textLength="37" x="224.163" y="52.6252">Login</text><ellipse cx="400.4975" cy="398.3526" fill="#FEFECE" filter="url(#f18frzp5pzne3m)" rx="67.4975" ry="15.8995" style="stroke: #A80036; stroke-width: 1.5;"/><text fill="#000000" font-family="sans-serif" font-size="14" lengthAdjust="spacingAndGlyphs" textLength="100" x="350.4975" y="403.0011">Money Control</text><ellipse cx="512.4486" cy="176.7428" fill="#FEFECE" filter="url(#f18frzp5pzne3m)" rx="64.4486" ry="15.2897" style="stroke: #A80036; stroke-width: 1.5;"/><text fill="#000000" font-family="sans-serif" font-size="14" lengthAdjust="spacingAndGlyphs" textLength="92" x="466.4486" y="181.3913">Configuration</text><ellipse cx="83.6274" cy="304.4768" fill="#FEFECE" filter="url(#f18frzp5pzne3m)" rx="25.6274" ry="14.5236" style="stroke: #A80036; stroke-width: 1.5;"/><text fill="#000000" font-family="sans-serif" font-size="14" lengthAdjust="spacingAndGlyphs" textLength="32" x="67.6274" y="309.1252">View</text><ellipse cx="317.3339" cy="491.0199" fill="#FEFECE" filter="url(#f18frzp5pzne3m)" rx="63.3339" ry="15.0668" style="stroke: #A80036; stroke-width: 1.5;"/><text fill="#000000" font-family="sans-serif" font-size="14" lengthAdjust="spacingAndGlyphs" textLength="89" x="272.8339" y="495.6683">Amount Limit</text><ellipse cx="484.6672" cy="491.0866" fill="#FEFECE" filter="url(#f18frzp5pzne3m)" rx="68.6672" ry="16.1334" style="stroke: #A80036; stroke-width: 1.5;"/><text fill="#000000" font-family="sans-serif" font-size="14" lengthAdjust="spacingAndGlyphs" textLength="103" x="433.1672" y="495.735">Montly Amount</text><ellipse cx="426.2894" cy="304.211" fill="#FEFECE" filter="url(#f18frzp5pzne3m)" rx="74.2894" ry="17.2579" style="stroke: #A80036; stroke-width: 1.5;"/><text fill="#000000" font-family="sans-serif" font-size="14" lengthAdjust="spacingAndGlyphs" textLength="117" x="367.7894" y="308.8594">Add other Parent</text><ellipse cx="598.7362" cy="304.3004" fill="#FEFECE" filter="url(#f18frzp5pzne3m)" rx="62.2362" ry="14.8472" style="stroke: #A80036; stroke-width: 1.5;"/><text fill="#000000" font-family="sans-serif" font-size="14" lengthAdjust="spacingAndGlyphs" textLength="86" x="555.7362" y="308.9488">Add children</text><ellipse cx="751.3259" cy="304.4768" fill="#FEFECE" filter="url(#f18frzp5pzne3m)" rx="55.3259" ry="14.5236" style="stroke: #A80036; stroke-width: 1.5;"/><text fill="#000000" font-family="sans-serif" font-size="14" lengthAdjust="spacingAndGlyphs" textLength="74" x="714.3259" y="309.1252">Block Card</text><ellipse cx="604.2712" cy="47.8074" fill="#FEFECE" filter="url(#f18frzp5pzne3m)" rx="82.2712" ry="18.8542" style="stroke: #A80036; stroke-width: 1.5;"/><text fill="#000000" font-family="sans-serif" font-size="14" lengthAdjust="spacingAndGlyphs" textLength="136" x="536.2712" y="52.4558">Purchase Categorie</text><ellipse cx="411.5253" cy="47.9582" fill="#FEFECE" filter="url(#f18frzp5pzne3m)" rx="75.5253" ry="17.5051" style="stroke: #A80036; stroke-width: 1.5;"/><text fill="#000000" font-family="sans-serif" font-size="14" lengthAdjust="spacingAndGlyphs" textLength="120" x="351.5253" y="52.6066">Restricted Places</text><ellipse cx="673.5143" cy="177.156" fill="#FEFECE" filter="url(#f18frzp5pzne3m)" rx="61.5143" ry="14.7029" style="stroke: #A80036; stroke-width: 1.5;"/><text fill="#000000" font-family="sans-serif" font-size="14" lengthAdjust="spacingAndGlyphs" textLength="84" x="631.5143" y="181.8044">Notifications</text><ellipse cx="69.4975" cy="398.4768" fill="#FEFECE" filter="url(#f18frzp5pzne3m)" rx="52.4975" ry="14.5236" style="stroke: #A80036; stroke-width: 1.5;"/><text fill="#000000" font-family="sans-serif" font-size="14" lengthAdjust="spacingAndGlyphs" textLength="70" x="34.4975" y="403.1252">View Child</text><ellipse cx="83.6068" cy="176.8745" fill="#FEFECE" filter="url(#f18frzp5pzne3m)" rx="77.6068" ry="17.9214" style="stroke: #A80036; stroke-width: 1.5;"/><text fill="#000000" font-family="sans-serif" font-size="14" lengthAdjust="spacingAndGlyphs" textLength="125" x="21.1068" y="181.5229">Expenses Graphic</text><!--link U to CA--><path d="M239.134,227.2131 C235.92,274.2451 231.233,342.8301 228.911,376.8011 " fill="none" id="U-CA" style="stroke: #A80036; stroke-width: 1.0;"/><polygon fill="#A80036" points="228.56,381.9471,233.1652,373.2413,228.9014,376.9588,225.1839,372.695,228.56,381.9471" style="stroke: #A80036; stroke-width: 1.0;"/><!--link L to U--><path d="M242.5,67.9441 C242.5,83.5301 242.5,106.3141 242.5,126.9421 " fill="none" id="L-U" style="stroke: #A80036; stroke-width: 1.0;"/><polygon fill="#A80036" points="242.5,62.5441,238.5,71.5441,242.5,67.5441,246.5,71.5441,242.5,62.5441" style="stroke: #A80036; stroke-width: 1.0;"/><!--link U to MC--><path d="M271.413,227.1681 C288.718,255.5731 311.718,291.5731 334.5,321.9531 C349.68,342.1961 368.897,363.7881 382.673,378.6741 " fill="none" id="U-MC" style="stroke: #A80036; stroke-width: 1.0;"/><polygon fill="#A80036" points="386.407,382.6871,383.2062,373.3729,383.0016,379.0261,377.3485,378.8215,386.407,382.6871" style="stroke: #A80036; stroke-width: 1.0;"/><!--link U to C--><path d="M273.613,176.9531 C329.925,176.9531 386.236,176.9531 442.547,176.9531 " fill="none" id="U-C" style="stroke: #A80036; stroke-width: 1.0;"/><polygon fill="#A80036" points="447.646,176.9531,438.646,172.9531,442.646,176.9531,438.646,180.9531,447.646,176.9531" style="stroke: #A80036; stroke-width: 1.0;"/><!--link U to V--><path d="M211.466,202.4491 C178.867,228.1791 128.688,267.7861 101.8788,288.9461 " fill="none" id="U-V" style="stroke: #A80036; stroke-width: 1.0;"/><polygon fill="#A80036" points="97.783,292.1791,107.3256,289.7423,101.7075,289.0811,102.3687,283.463,97.783,292.1791" style="stroke: #A80036; stroke-width: 1.0;"/><!--link MC to AL--><path d="M386.794,414.3973 C372.278,430.2258 349.363,455.2104 333.899,472.0727 " fill="none" id="MC-AL" style="stroke: #A80036; stroke-width: 1.0;"/><polygon fill="#A80036" points="330.137,476.1743,339.1685,472.2459,333.5169,472.4897,333.2731,466.8381,330.137,476.1743" style="stroke: #A80036; stroke-width: 1.0;"/><!--link MC to MA--><path d="M414.371,414.3973 C428.84,429.9865 451.553,454.4572 467.189,471.3026 " fill="none" id="MC-MA" style="stroke: #A80036; stroke-width: 1.0;"/><polygon fill="#A80036" points="470.609,474.9867,467.4193,465.6687,467.208,471.3216,461.5551,471.1103,470.609,474.9867" style="stroke: #A80036; stroke-width: 1.0;"/><!--link C to AP--><path d="M502.635,192.3491 C487.453,214.5041 458.29,257.0611 440.795,282.5921 " fill="none" id="C-AP" style="stroke: #A80036; stroke-width: 1.0;"/><polygon fill="#A80036" points="437.881,286.8441,446.2689,281.6824,440.708,282.72,439.6703,277.1592,437.881,286.8441" style="stroke: #A80036; stroke-width: 1.0;"/><!--link C to AC--><path d="M522.365,192.3491 C538.131,215.3561 568.974,260.3651 586.17,285.4601 " fill="none" id="C-AC" style="stroke: #A80036; stroke-width: 1.0;"/><polygon fill="#A80036" points="589.012,289.6071,587.2227,279.9222,586.185,285.483,580.6241,284.4454,589.012,289.6071" style="stroke: #A80036; stroke-width: 1.0;"/><!--link C to BC--><path d="M534.134,191.5691 C550.501,201.7001 573.643,215.6661 594.5,226.9531 C637.581,250.2661 688.813,274.6211 720.751,289.4181 " fill="none" id="C-BC" style="stroke: #A80036; stroke-width: 1.0;"/><polygon fill="#A80036" points="725.32,291.5311,718.8298,284.1232,720.7817,289.4327,715.4722,291.3846,725.32,291.5311" style="stroke: #A80036; stroke-width: 1.0;"/><!--link C to N--><path d="M577.277,176.9531 C587.093,176.9531 596.909,176.9531 606.724,176.9531 " fill="none" id="C-N" style="stroke: #A80036; stroke-width: 1.0;"/><polygon fill="#A80036" points="611.857,176.9531,602.857,172.9531,606.857,176.9531,602.857,180.9531,611.857,176.9531" style="stroke: #A80036; stroke-width: 1.0;"/><!--link PC to C--><path d="M588.362,71.2311 C569.489,97.2841 538.804,139.6421 522.859,161.6521 " fill="none" id="PC-C" style="stroke: #A80036; stroke-width: 1.0;"/><polygon fill="#A80036" points="591.514,66.8801,582.9944,71.8215,588.5804,70.9291,589.4728,76.5151,591.514,66.8801" style="stroke: #A80036; stroke-width: 1.0;"/><!--link RP to C--><path d="M427.666,69.2811 C448.211,95.1141 483.156,139.0551 501.11,161.6301 " fill="none" id="RP-C" style="stroke: #A80036; stroke-width: 1.0;"/><polygon fill="#A80036" points="424.497,65.2961,426.9698,74.8295,427.6098,69.209,433.2304,69.849,424.497,65.2961" style="stroke: #A80036; stroke-width: 1.0;"/><!--link V to VC--><path d="M81.4343,319.0281 C79.0355,334.7911 75.0638,360.8911 72.3671,378.6121 " fill="none" id="V-VC" style="stroke: #A80036; stroke-width: 1.0;"/><polygon fill="#A80036" points="71.5742,383.8221,76.8837,375.527,72.327,378.8791,68.9749,374.3225,71.5742,383.8221" style="stroke: #A80036; stroke-width: 1.0;"/><!--link EG to V--><path d="M83.5,200.4381 C83.5,226.4641 83.5,268.4891 83.5,289.9291 " fill="none" id="EG-V" style="stroke: #A80036; stroke-width: 1.0;"/><polygon fill="#A80036" points="83.5,195.1401,79.5,204.1401,83.5,200.1401,87.5,204.1401,83.5,195.1401" style="stroke: #A80036; stroke-width: 1.0;"/><!--
@startuml
title Use Case Diagram 1


actor :User: as U<<Parent>>

(Create Account) as CA
(Login) as L
(Money Control) as MC
(Configuration) as C
(View) as V


(Amount Limit) as AL
(Montly Amount) as MA
(Add other Parent) as AP
(Add children) as AC
(Block Card) as BC
(Purchase Categorie) as PC
(Restricted Places) as RP
(Notifications) as N
(View Child) as VC
(Expenses Graphic) as EG


U - - -> CA
U -up-> L
U - - -> MC
U -> C
U - -> V


MC - -> (AL)
MC - -> (MA)

C - -> (AP)
C - -> (AC)
C - -> (BC)
C -> (N)
C -up-> (PC)
C -up-> (RP)

V - -> (VC)
V -up-> (EG)
@enduml

PlantUML version 1.2018.13beta10(Unknown compile time)
(GPL source distribution)
Java Runtime: Java(TM) SE Runtime Environment
JVM: Java HotSpot(TM) 64-Bit Server VM
Java Version: 1.7.0_25-b15
Operating System: Linux
Default Encoding: UTF-8
Language: en
Country: US
--></g></svg>